<?xml version="1.0" standalone="no"?>
<!DOCTYPE svg PUBLIC "-//W3C//DTD SVG 20010904//EN"
 "http://www.w3.org/TR/2001/REC-SVG-20010904/DTD/svg10.dtd">
<svg version="1.0" xmlns="http://www.w3.org/2000/svg"
 width="1200.000000pt" height="1200.000000pt" viewBox="0 0 1200.000000 1200.000000"
 preserveAspectRatio="xMidYMid meet">
<metadata>
Created by potrace 1.14, written by Peter Selinger 2001-2017
</metadata>
<g transform="translate(0.000000,1200.000000) scale(0.100000,-0.100000)"
fill="#000000" stroke="none">
<path d="M4650 10764 c-646 -532 -1427 -1174 -1736 -1428 -308 -253 -1043
-857 -1632 -1341 -589 -484 -1071 -887 -1072 -895 0 -8 439 -1530 977 -3382
l977 -3368 3868 0 c2127 0 3868 2 3868 5 0 3 430 1573 956 3491 525 1917 954
3487 952 3489 -4 4 -5702 4199 -5857 4312 -62 46 -116 83 -120 83 -3 0 -535
-435 -1181 -966z m1310 42 c56 -131 105 -249 110 -262 11 -28 13 -28 275 -49
110 -9 231 -19 269 -23 l70 -7 -211 -182 c-115 -99 -217 -189 -227 -198 -20
-20 -24 7 55 -334 33 -140 57 -256 55 -258 -3 -3 -117 63 -254 146 -137 83
-252 151 -255 151 -2 0 -116 -67 -253 -150 -136 -82 -251 -150 -255 -150 -6 0
8 65 80 372 22 97 41 185 41 196 0 12 -76 84 -217 206 -120 104 -219 192 -221
197 -2 5 7 9 20 9 47 1 569 47 571 51 3 3 166 390 212 503 10 22 20 35 25 30
5 -5 54 -116 110 -248z m1923 -1310 c3 -19 22 -58 41 -88 26 -38 40 -73 47
-118 5 -35 12 -67 14 -71 3 -4 24 -17 47 -29 61 -31 145 -88 199 -132 51 -43
57 -44 118 -22 34 11 67 14 135 9 140 -9 159 -13 151 -33 -4 -9 -13 -55 -21
-102 -17 -100 -39 -154 -72 -181 l-25 -19 21 -78 c32 -115 42 -185 42 -293 l0
-98 52 -28 c47 -25 178 -159 178 -181 0 -5 -10 -13 -22 -19 -13 -6 -45 -31
-73 -55 -68 -61 -90 -72 -159 -78 l-59 -5 -54 -80 c-71 -105 -148 -191 -234
-262 l-71 -58 8 -50 c12 -79 5 -144 -23 -214 -37 -95 -36 -94 -101 -65 -78 34
-115 65 -162 134 -45 66 -59 73 -115 60 -22 -5 -91 -10 -153 -10 -62 0 -122
-5 -133 -10 -10 -6 -30 -32 -43 -58 -29 -56 -65 -92 -123 -121 -54 -27 -63
-26 -63 3 0 13 -7 43 -15 66 -17 49 -20 127 -5 166 13 33 5 43 -88 106 -34 24
-94 65 -132 92 l-70 49 -99 -17 c-97 -17 -163 -16 -220 6 -19 7 -22 14 -18 36
11 58 61 173 88 203 16 18 29 36 29 40 0 3 -11 35 -24 70 -13 35 -31 105 -40
154 -9 50 -18 99 -21 110 -3 13 -18 24 -45 33 -54 17 -94 46 -126 95 -15 22
-42 55 -61 72 l-35 32 49 50 c26 27 68 64 92 81 39 28 52 32 110 32 l66 0 31
48 c17 26 46 74 64 107 35 63 80 125 139 188 32 34 34 40 22 59 -33 53 -51
132 -51 223 0 50 2 94 6 97 3 3 26 -1 51 -8 25 -8 59 -14 74 -14 16 0 53 -9
83 -21 43 -15 63 -31 87 -64 l31 -44 52 23 c50 22 182 49 300 61 78 7 92 17
100 66 11 69 138 187 202 189 17 0 23 -8 27 -34z m-4417 -1169 c4 -4 -9 -40
-29 -80 -20 -39 -39 -84 -42 -98 -5 -18 -28 -41 -74 -73 -81 -55 -242 -216
-308 -306 -143 -198 -248 -417 -295 -614 -22 -95 -25 -100 -68 -135 -25 -19
-70 -57 -101 -83 l-57 -48 -16 26 c-36 53 -85 202 -97 289 -30 232 50 496 214
700 178 221 425 376 672 421 72 13 189 14 201 1z m2434 -595 c45 -68 75 -102
89 -102 8 0 28 11 45 24 54 41 94 58 103 43 4 -6 8 -56 8 -111 l0 -98 87 -94
c48 -52 98 -109 110 -129 33 -50 48 -52 84 -9 17 20 36 34 41 31 30 -19 193
-463 193 -528 0 -20 -24 -26 -35 -9 -9 15 -81 50 -102 50 -10 0 -35 -11 -55
-25 -47 -32 -60 -31 -111 3 -86 57 -90 58 -141 28 -25 -14 -48 -31 -51 -36
-15 -23 -46 -4 -137 84 -54 52 -107 97 -118 101 -30 10 -89 -32 -182 -126 -42
-44 -83 -79 -91 -79 -8 0 -22 9 -33 21 -25 28 -54 21 -138 -32 l-67 -42 -68
33 -68 32 -61 -33 c-91 -50 -93 -42 -42 136 44 155 128 376 145 382 6 1 18
-15 27 -37 9 -22 23 -40 31 -40 8 0 27 17 43 38 15 20 62 74 103 120 l75 83 2
117 c1 64 2 120 3 125 2 14 27 6 71 -24 61 -41 88 -36 119 21 55 104 72 129
84 124 6 -2 23 -21 37 -42z m-2286 -318 c30 -29 43 -50 39 -58 -15 -26 -279
-296 -289 -296 -15 0 -94 60 -94 71 0 11 282 329 292 329 3 0 27 -21 52 -46z
m4947 -104 c35 -11 101 -41 146 -67 45 -27 126 -74 180 -105 99 -57 202 -98
248 -98 14 0 25 -4 25 -9 0 -18 -67 -33 -170 -38 -102 -5 -121 -3 -250 33 -23
7 -24 6 -11 -10 37 -45 243 -124 351 -135 36 -3 65 -10 65 -16 0 -5 -18 -16
-40 -23 -53 -18 -192 -1 -327 39 -115 34 -150 37 -93 7 36 -19 159 -64 178
-66 54 -3 127 -16 127 -22 0 -34 -248 -49 -358 -21 -29 7 -55 11 -58 8 -3 -3
1 -18 9 -34 8 -15 17 -49 20 -75 4 -31 19 -66 42 -99 30 -44 34 -57 29 -89 -5
-30 -1 -47 15 -73 35 -57 21 -128 -34 -180 -37 -34 -28 -52 34 -68 48 -12 53
-16 93 -83 23 -39 61 -100 85 -135 24 -35 40 -68 36 -72 -10 -10 -161 5 -213
21 -55 15 -68 29 -119 125 -27 52 -54 91 -64 93 -25 5 -21 -16 17 -99 32 -70
34 -77 24 -134 -14 -88 -93 -213 -119 -188 -25 24 -22 122 5 226 31 122 26
139 -62 216 -45 38 -64 63 -72 91 -6 23 -21 45 -38 56 -15 10 -39 30 -54 46
l-27 29 -16 -30 c-8 -17 -19 -31 -23 -31 -5 0 -8 44 -8 98 0 71 -6 116 -22
168 -33 107 -35 104 56 104 83 0 141 12 154 32 4 7 8 28 8 45 0 29 -5 35 -47
56 -27 14 -65 30 -85 36 -45 15 -66 36 -43 45 21 8 19 49 -6 97 -16 32 -18 44
-8 55 6 7 26 69 43 136 31 118 34 124 67 140 51 25 226 24 310 -2z m-4793 -54
c-4 -20 -281 -306 -295 -306 -7 0 -13 3 -13 8 0 27 267 310 293 311 11 1 17
-5 15 -13z m-665 -418 c103 -52 127 -70 127 -94 0 -10 -7 -13 -25 -8 -16 4
-51 -5 -102 -26 -83 -34 -113 -55 -113 -77 0 -20 78 -53 126 -53 60 0 63 -21
14 -77 -63 -72 -111 -151 -126 -205 -14 -56 -23 -71 -25 -42 -4 73 17 148 61
217 25 41 27 47 13 58 -13 11 -18 9 -34 -11 -11 -14 -32 -41 -48 -60 -15 -20
-38 -54 -50 -77 -12 -25 -43 -59 -74 -81 -36 -27 -56 -51 -66 -78 -17 -47
-101 -165 -113 -158 -12 7 -10 68 3 81 7 7 -2 12 -30 17 -68 11 -87 24 -114
84 -48 104 -45 152 13 219 17 19 30 45 30 58 0 13 17 44 40 70 22 26 48 61 56
78 23 45 192 206 223 213 14 3 31 7 36 9 27 7 89 -13 178 -57z m2906 -53 c54
-52 104 -95 113 -95 8 0 42 18 74 40 33 22 63 40 68 40 5 0 41 -21 79 -47 l70
-47 48 27 c58 32 78 34 112 7 14 -11 29 -20 33 -20 4 0 16 -8 27 -17 18 -17
20 -16 50 18 18 20 47 55 66 79 20 25 37 38 43 32 13 -13 64 -535 53 -553 -3
-3 -24 -3 -47 2 -74 14 -228 10 -361 -11 -71 -11 -132 -22 -137 -25 -4 -3 -60
-18 -123 -34 -114 -30 -116 -30 -204 -16 -48 7 -153 28 -233 45 -201 45 -424
53 -584 21 -59 -12 -137 -33 -173 -46 -36 -14 -70 -25 -75 -25 -16 0 3 137 55
390 15 69 29 142 32 163 3 20 9 37 13 37 4 0 28 -21 52 -46 56 -57 94 -78 118
-65 9 5 34 23 56 40 l38 31 57 -30 c31 -17 66 -30 79 -30 31 0 91 32 121 64
31 33 39 33 89 -4 23 -16 47 -30 54 -30 6 0 55 45 108 100 53 56 104 100 114
100 10 0 62 -43 115 -95z m-1810 -100 c63 -79 61 -78 123 -61 29 8 70 17 92
21 l39 6 -5 -43 c-6 -52 -52 -160 -79 -184 -18 -16 -22 -15 -80 10 -107 46
-212 52 -331 19 -70 -20 -80 -14 -118 72 -34 74 -45 121 -30 130 5 3 36 -7 67
-24 66 -36 74 -37 90 -12 20 31 144 121 167 121 14 0 37 -20 65 -55z m42 -282
c47 -14 70 -32 177 -139 67 -68 122 -129 122 -137 0 -9 -16 -16 -44 -20 -61
-9 -148 -43 -206 -82 l-49 -33 -66 24 c-36 13 -81 24 -100 24 -46 0 -121 -26
-168 -57 l-37 -26 -38 41 c-44 48 -116 81 -189 89 -29 3 -53 10 -53 15 0 11
90 100 162 160 77 64 183 127 242 143 71 19 183 18 247 -2z m3402 -137 c37
-15 183 -134 295 -241 79 -74 132 -153 132 -197 0 -31 -35 -75 -79 -101 l-30
-18 -35 69 c-59 118 -201 284 -325 382 -45 35 -81 69 -81 76 0 18 40 44 68 44
12 0 37 -6 55 -14z m-835 -87 l50 -12 5 -61 c2 -34 3 -64 1 -67 -2 -4 -23 3
-46 15 -32 16 -66 22 -134 24 -120 5 -210 -10 -361 -59 -209 -68 -314 -71
-588 -19 -116 22 -219 36 -326 45 -92 7 -319 -17 -431 -45 -44 -12 -83 -19
-86 -16 -7 7 -4 85 3 97 12 19 207 71 320 86 154 19 282 8 573 -49 l212 -42
108 12 c59 7 154 26 212 42 198 57 374 75 488 49z m-3480 -25 c12 -8 29 -29
38 -47 16 -29 15 -32 -4 -46 -104 -81 -147 -120 -267 -242 -82 -83 -144 -139
-154 -137 -21 4 -61 76 -61 111 0 33 40 78 172 194 120 106 219 182 238 183 9
0 26 -7 38 -16z m5601 -34 c43 -22 76 -56 124 -130 24 -35 33 -56 26 -61 -13
-8 -111 16 -150 37 -23 11 -139 163 -139 181 0 11 104 -9 139 -27z m-1676 -73
c19 -9 53 -34 75 -56 33 -34 41 -50 46 -95 4 -29 4 -66 1 -82 -9 -37 -41 -128
-55 -151 -5 -10 -26 -53 -46 -97 -49 -109 -49 -171 0 -292 35 -86 47 -173 30
-218 -8 -21 -24 -21 -24 0 0 9 -15 55 -34 103 -85 220 -88 298 -17 456 77 169
79 278 7 344 -20 19 -40 26 -84 29 -73 5 -134 -23 -220 -103 -33 -30 -65 -55
-70 -55 -6 0 -16 10 -23 21 -6 12 -26 42 -45 66 -19 25 -32 48 -29 53 2 4 24
1 48 -8 l44 -16 74 44 c127 74 235 93 322 57z m-2669 5 c4 -8 -29 -440 -38
-497 -3 -16 -10 -73 -16 -125 -6 -52 -19 -169 -30 -260 -34 -295 -89 -841
-100 -1000 -27 -384 -28 -414 -12 -425 9 -5 27 -21 41 -35 14 -13 44 -34 66
-45 47 -24 83 -73 91 -127 6 -36 9 -38 43 -38 20 -1 119 -5 221 -10 102 -5
318 -12 480 -16 162 -4 297 -8 299 -11 3 -2 -25 -31 -61 -63 -41 -37 -71 -73
-78 -95 -7 -20 -20 -37 -33 -41 -12 -4 -245 -5 -517 -3 l-495 4 -3 -24 c-2
-13 1 -28 6 -33 13 -13 381 -29 731 -31 l285 -2 12 -47 c23 -90 102 -181 209
-239 49 -27 141 -121 166 -171 11 -21 23 -38 27 -38 4 0 18 23 32 52 14 29 34
63 45 77 50 63 49 61 18 57 -15 -2 -66 0 -112 4 -63 7 -93 15 -122 35 -56 37
-51 57 24 101 61 36 64 37 159 35 58 -1 106 3 119 9 18 10 28 7 70 -22 27 -18
49 -38 49 -45 0 -34 62 -19 138 34 61 41 92 93 92 151 l0 39 83 6 c45 4 116 7
157 7 41 0 113 4 160 9 215 23 247 24 267 3 10 -10 33 -29 52 -42 33 -23 34
-23 47 -5 21 29 18 38 -36 88 -27 26 -50 51 -50 57 0 5 -6 10 -14 10 -15 0
-39 45 -74 135 -23 59 -16 86 21 79 40 -7 90 -5 155 5 35 5 76 6 91 1 24 -7
50 -4 156 14 79 14 210 24 420 30 135 4 213 12 267 27 20 5 52 7 71 5 19 -2
76 4 128 15 58 11 97 15 103 9 15 -15 -13 -144 -45 -209 -16 -32 -57 -88 -90
-125 -34 -37 -59 -70 -55 -73 3 -3 16 -11 28 -17 46 -22 78 -138 46 -163 -27
-21 -136 -56 -198 -63 -36 -4 -90 -15 -120 -24 -45 -13 -65 -14 -108 -5 -41 8
-61 8 -83 -2 -20 -8 -55 -10 -102 -6 -45 4 -84 2 -104 -5 -24 -9 -53 -9 -113
-1 -69 9 -161 3 -178 -12 -2 -2 10 -30 27 -63 110 -217 100 -468 -28 -735 -28
-58 -51 -109 -51 -112 0 -3 340 -5 757 -5 608 1 758 -2 765 -12 4 -7 7 -60 5
-118 l-2 -105 -160 -8 c-173 -8 -5372 0 -5417 9 -24 5 -27 11 -33 57 -4 29 -5
77 -3 107 l3 55 709 3 c391 1 712 4 714 7 3 2 -12 27 -31 54 -95 132 -137 250
-144 406 -8 175 23 302 105 422 40 59 41 61 19 67 -12 3 -50 6 -85 6 -55 0
-68 -4 -100 -29 -54 -43 -96 -46 -86 -7 6 24 4 24 -68 30 -40 3 -125 8 -188
11 -63 3 -142 12 -175 20 -33 7 -62 12 -64 10 -2 -3 4 -16 13 -30 10 -15 16
-30 14 -35 -4 -11 -111 26 -201 70 -61 30 -117 82 -117 109 0 5 25 -5 55 -24
55 -33 153 -70 162 -61 3 2 -1 29 -8 60 -11 50 -10 60 11 116 22 59 22 61 5
116 -16 52 -16 57 1 102 12 31 17 70 16 115 -2 74 11 112 59 162 28 29 28 31
15 80 -10 41 -17 51 -37 53 -124 17 -267 64 -361 119 -56 33 -61 39 -73 101
-8 39 0 40 69 8 69 -32 281 -106 334 -115 41 -8 42 -8 42 18 0 24 -6 28 -84
48 -163 44 -252 82 -307 131 -55 49 -79 92 -79 141 0 45 16 46 64 4 54 -48
182 -116 277 -148 99 -34 111 -33 107 6 -3 29 -8 33 -53 45 -170 43 -395 196
-395 269 0 38 27 95 44 95 9 0 16 -5 16 -10 0 -6 19 -28 42 -51 47 -46 168
-110 259 -138 l59 -19 0 32 c0 17 -9 112 -20 211 -11 99 -36 335 -55 525 -20
190 -39 356 -41 370 -6 25 -6 25 -40 -15 -38 -45 -119 -203 -129 -252 -4 -18
-10 -33 -13 -33 -15 1 -42 28 -42 41 0 40 90 192 174 294 38 46 41 54 36 94
l-5 44 -110 -125 c-60 -68 -122 -139 -136 -158 l-25 -34 -45 18 c-51 20 -87
51 -100 85 -9 22 1 36 113 149 153 156 265 255 278 247 6 -4 10 16 10 55 0 33
7 77 15 97 15 35 16 36 61 29 63 -8 138 -51 189 -108 64 -72 69 -110 85 -738
10 -375 44 -1202 56 -1336 4 -55 9 -71 21 -71 20 0 19 39 -42 1725 -15 410
-15 414 5 442 23 32 85 60 133 60 45 0 130 -42 155 -77 12 -16 30 -63 42 -104
18 -67 20 -101 20 -374 0 -165 -5 -372 -10 -460 -5 -88 -17 -298 -25 -466 -8
-168 -22 -400 -30 -515 -19 -262 -19 -244 5 -244 19 0 20 7 20 103 0 103 13
357 50 971 29 493 34 693 21 831 -27 284 -27 267 5 298 16 16 41 35 56 43 63
33 200 56 212 36z m-1137 -34 c25 -27 53 -82 52 -100 0 -7 -36 -44 -80 -83
-44 -38 -131 -123 -194 -187 -63 -65 -120 -118 -128 -118 -49 0 -117 53 -117
90 0 16 328 346 390 393 43 33 51 33 77 5z m1436 -116 c69 -67 82 -97 82 -187
-1 -46 -9 -112 -20 -155 -21 -81 -26 -228 -12 -335 l8 -60 -29 34 c-56 62 -61
132 -25 351 18 113 14 231 -11 279 -10 18 -36 54 -59 79 l-42 45 35 -7 c20 -4
51 -22 73 -44z m4243 -47 c17 -5 116 -154 109 -165 -5 -9 -108 17 -158 41 -23
10 -97 112 -97 132 0 6 123 -1 146 -8z m-2416 -102 c4 -37 15 -86 23 -108 17
-44 33 -138 42 -256 5 -59 2 -93 -15 -158 -37 -146 -67 -168 -206 -150 -83 10
-95 10 -122 -7 l-30 -17 -4 -125 -3 -124 -52 -47 c-29 -25 -57 -59 -63 -76
-25 -65 -42 -196 -42 -323 0 -162 -4 -168 -104 -188 -38 -7 -75 -13 -81 -14
-22 0 -14 28 15 50 22 18 36 21 74 17 26 -4 50 -2 53 4 4 5 1 90 -6 189 -16
218 -9 248 76 354 74 91 85 120 85 226 0 49 3 95 6 104 16 42 116 72 161 48
12 -7 49 -12 82 -12 52 0 63 3 75 23 22 33 39 152 32 216 -4 31 -9 90 -12 131
-3 41 -9 100 -12 130 -4 30 -5 88 -4 129 5 91 21 83 32 -16z m2129 69 l105 -7
48 -84 49 -84 -125 7 c-69 3 -136 10 -149 15 -17 7 -35 32 -56 76 -39 84 -39
96 -3 89 15 -3 74 -8 131 -12z m-179 -155 c0 -101 -48 -242 -87 -254 -12 -4
-113 171 -113 197 0 8 15 27 33 41 30 24 54 56 102 134 l19 30 23 -50 c14 -30
23 -69 23 -98z m520 -22 c30 -8 67 -15 81 -15 22 0 37 -15 82 -76 56 -77 60
-96 26 -115 -26 -13 -106 -27 -117 -20 -12 8 -132 217 -132 230 0 13 -6 14 60
-4z m-3773 -72 c61 -60 101 -136 109 -208 7 -60 -4 -72 -26 -30 -8 14 -38 46
-67 71 -48 41 -53 50 -53 85 0 45 -17 84 -49 113 -12 11 -21 25 -21 33 0 21
50 -8 107 -64z m1008 24 c-11 -7 -40 -31 -64 -54 -40 -40 -43 -46 -38 -80 10
-63 1 -80 -55 -99 -37 -12 -55 -25 -70 -51 -30 -50 -45 -28 -24 35 18 54 75
154 109 190 29 32 106 71 137 71 24 0 24 -1 5 -12z m2591 -23 l89 -7 44 -72
c25 -40 44 -77 44 -81 0 -5 -27 -16 -59 -25 -61 -16 -128 -47 -177 -81 -15
-11 -33 -18 -40 -15 -7 2 -23 38 -36 78 -13 41 -34 98 -47 128 -13 29 -24 60
-24 67 0 16 59 18 206 8z m-222 -125 c14 -39 26 -77 26 -86 0 -9 6 -24 14 -32
7 -9 18 -30 24 -48 10 -31 9 -33 -36 -66 -84 -61 -93 -64 -117 -33 -11 14 -38
57 -58 96 l-38 69 38 38 c21 21 51 65 66 97 34 70 43 66 81 -35z m-3544 -329
c46 -23 72 -53 105 -119 39 -79 41 -134 10 -291 -34 -172 -41 -289 -26 -419
19 -159 76 -316 147 -400 57 -68 252 -145 409 -162 102 -12 448 0 650 21 146
16 283 12 389 -10 118 -24 216 -71 216 -102 0 -13 -85 -4 -178 17 -63 15 -101
16 -310 7 -346 -14 -785 -8 -897 13 -209 38 -407 209 -456 395 -10 38 -23 290
-32 606 -2 75 0 82 27 114 26 32 28 39 23 96 -6 77 -25 109 -91 154 -48 32
-56 35 -131 35 -74 0 -80 2 -83 22 -2 16 4 23 30 31 73 23 141 20 198 -8z
m3390 -12 c7 -18 15 -90 17 -159 5 -107 2 -138 -17 -214 -33 -132 -101 -283
-168 -373 -41 -55 -143 -135 -156 -122 -8 8 -2 18 21 38 67 58 79 135 34 222
-19 37 -20 43 -6 69 27 52 29 106 8 148 -11 21 -18 45 -15 53 22 70 235 370
262 370 5 0 14 -15 20 -32z m-1428 -138 c-1 -51 5 -143 14 -204 24 -166 8
-282 -48 -350 -32 -40 -123 -79 -172 -74 l-31 3 50 32 c65 41 75 51 108 94 45
60 52 136 26 282 -23 129 -21 205 5 267 17 41 26 52 40 47 7 -2 10 -38 8 -97z
m-590 -7 c9 -10 19 -43 23 -73 4 -30 22 -125 41 -210 38 -175 51 -270 38 -270
-24 1 -154 191 -220 322 -32 63 -46 138 -25 138 14 0 25 -18 112 -189 45 -91
85 -159 87 -153 2 7 -8 45 -22 86 -47 138 -83 366 -58 366 5 0 16 -8 24 -17z
m-1547 -62 c8 -39 -11 -145 -49 -262 -18 -55 -29 -99 -25 -99 21 0 157 171
209 263 17 31 35 57 39 57 15 0 10 -55 -11 -103 -28 -68 -115 -185 -170 -229
-57 -46 -155 -101 -167 -93 -6 3 2 34 18 73 41 99 101 289 125 395 8 35 23 35
31 -2z m3200 -32 c65 -58 47 -90 -110 -187 -145 -90 -342 -167 -541 -212 -153
-36 -308 -45 -324 -20 -14 22 -12 106 3 117 6 5 57 17 112 26 223 36 583 173
715 272 59 44 98 45 145 4z m-5214 -86 c120 -152 169 -235 169 -285 0 -18 4
-48 10 -67 7 -26 6 -48 -6 -88 -15 -50 -14 -57 3 -111 14 -41 17 -70 12 -102
-6 -42 3 -129 16 -151 4 -5 2 -9 -3 -9 -16 0 -148 145 -177 194 -15 25 -42 89
-61 142 -43 119 -55 232 -44 399 5 66 9 126 9 133 2 25 20 10 72 -55z m1531 1
c5 -16 6 -62 3 -102 -6 -66 -4 -76 19 -117 15 -24 40 -52 56 -62 41 -24 38
-37 -7 -28 -51 9 -87 29 -113 62 -18 24 -21 37 -17 93 7 91 29 191 41 187 5
-2 14 -17 18 -33z m3753 -108 c23 -65 -45 -123 -287 -243 -276 -137 -437 -183
-639 -183 -113 0 -120 5 -127 84 l-4 54 98 -2 c223 -3 640 133 869 283 33 22
65 38 70 37 6 -2 14 -15 20 -30z m1 -211 c21 -51 17 -78 -18 -131 -45 -66
-100 -92 -343 -159 -281 -78 -381 -98 -502 -98 -122 0 -133 6 -133 73 l0 47
98 6 c162 11 326 48 494 111 71 27 283 131 333 165 43 28 54 26 71 -14z
m-2046 -344 c0 -5 -21 -14 -46 -20 -50 -13 -139 -54 -166 -78 -9 -8 -19 -10
-22 -5 -8 14 46 61 101 88 47 23 133 33 133 15z m450 -80 c113 -17 246 -36
295 -42 128 -15 272 -46 322 -70 54 -26 144 -123 178 -193 31 -63 30 -90 -4
-94 -30 -5 -81 49 -81 83 0 13 -20 45 -45 73 -37 41 -60 56 -132 84 -49 19
-113 40 -143 46 -479 102 -722 125 -846 81 -32 -11 -70 -23 -84 -26 l-25 -6
19 22 c21 23 52 40 121 66 57 21 180 14 425 -24z m-624 -516 c49 -24 90 -74
81 -99 -3 -6 -32 -27 -66 -45 -53 -28 -66 -31 -94 -23 -79 25 -122 24 -248 -4
-20 -4 -34 1 -60 24 l-33 30 19 42 c22 49 66 74 156 89 108 18 191 13 245 -14z
m802 -50 c7 -14 12 -31 12 -36 0 -6 12 -35 26 -65 14 -31 24 -58 21 -61 -3 -3
-138 -10 -300 -15 l-294 -10 -60 61 c-34 34 -63 72 -66 88 -3 15 -9 36 -12 46
-7 16 13 17 327 17 l335 0 11 -25z m-1193 -149 c17 -12 18 -18 7 -53 -19 -62
-15 -106 13 -147 14 -20 25 -41 25 -46 0 -18 -83 -70 -111 -70 -34 0 -60 39
-85 127 -22 79 -10 127 41 172 39 34 79 40 110 17z m564 -12 c59 -49 50 -163
-19 -235 -46 -48 -81 -51 -129 -11 l-34 28 18 47 c12 31 16 60 12 84 -4 21 -8
47 -9 57 -2 15 8 24 42 37 62 24 84 23 119 -7z m-264 -18 c34 -10 42 -18 53
-50 35 -107 -104 -191 -225 -137 -49 23 -66 50 -67 108 -1 31 5 48 23 67 22
24 31 26 100 25 42 0 94 -6 116 -13z m2807 -1575 c4 -3 8 -41 9 -84 3 -60 0
-80 -11 -88 -26 -17 -5567 2 -5750 20 l-65 6 -3 81 -3 81 2908 -4 c1599 -3
2911 -8 2915 -12z m-3837 -227 c650 -7 1811 -12 2960 -13 550 -1 1005 -5 1012
-9 13 -8 23 -145 12 -156 -3 -4 -53 -8 -110 -10 -127 -5 -4063 -6 -4309 -1
-96 2 -416 6 -710 10 -564 6 -910 14 -922 22 -5 2 -8 43 -8 90 l0 86 813 -7
c446 -3 1015 -9 1262 -12z m1215 -250 l2885 -5 7 -47 c8 -47 3 -130 -8 -141
-7 -8 -5072 -3 -5749 5 -315 4 -515 10 -522 16 -9 7 -13 39 -13 93 0 57 4 85
13 89 6 3 122 3 257 1 135 -3 1543 -8 3130 -11z m215 -249 c220 -3 884 -5
1475 -6 591 -1 1125 -4 1185 -8 l110 -6 0 -100 0 -100 -75 -7 c-75 -7 -1878
-3 -2945 7 -313 3 -833 7 -1155 10 -322 3 -623 7 -670 10 -47 3 -407 7 -800
11 -393 4 -744 9 -780 13 l-65 6 -3 79 c-2 44 0 86 3 94 5 13 195 14 1663 8
911 -3 1837 -9 2057 -11z"/>
<path d="M7483 9124 c-80 -17 -214 -69 -248 -96 -18 -14 -25 -27 -22 -42 3
-12 50 -115 106 -231 55 -115 101 -214 101 -220 0 -11 -61 -55 -76 -55 -9 0
-75 94 -206 293 -38 59 -77 107 -85 107 -33 0 -120 -107 -171 -211 -57 -116
-71 -169 -50 -187 8 -6 106 -34 218 -62 112 -27 209 -55 217 -61 13 -11 18
-70 7 -81 -3 -4 -18 -2 -34 2 -16 5 -115 21 -221 36 -186 27 -192 27 -205 9
-25 -33 -13 -164 27 -297 15 -51 24 -68 38 -68 10 0 55 21 102 46 46 26 102
56 124 67 22 11 71 38 109 60 l69 41 23 -28 c13 -15 24 -31 24 -35 0 -4 -51
-48 -112 -97 -156 -123 -248 -203 -248 -215 0 -38 235 -219 285 -219 30 0 50
29 75 105 27 85 108 317 113 322 10 9 57 -18 57 -32 0 -9 -20 -96 -45 -193
-24 -97 -45 -193 -47 -212 -3 -33 0 -36 37 -48 57 -20 240 -27 294 -12 41 11
43 13 37 41 -9 46 -115 319 -142 366 -13 23 -24 48 -24 56 0 17 88 43 101 30
4 -4 43 -73 87 -153 123 -223 134 -241 148 -247 19 -7 108 41 169 90 57 46
159 169 192 231 45 84 26 115 -82 136 -91 17 -347 102 -352 117 -3 7 -2 24 1
38 6 22 12 25 47 25 22 0 70 -4 107 -9 200 -29 345 -42 354 -33 5 5 13 36 17
68 19 136 -28 394 -71 394 -6 0 -117 -52 -247 -116 l-235 -117 -23 29 c-13 16
-23 31 -23 34 0 5 61 53 264 207 71 54 134 106 140 115 8 13 6 24 -10 45 -48
65 -258 203 -308 203 -10 0 -24 -17 -35 -42 -23 -56 -104 -286 -127 -363 -24
-80 -27 -83 -71 -76 -30 5 -38 11 -37 26 2 43 45 269 70 376 32 130 31 132
-59 144 -29 3 -59 8 -67 10 -8 1 -43 -3 -77 -11z m170 -635 c47 -13 106 -63
123 -106 21 -48 18 -137 -6 -183 -31 -61 -81 -93 -151 -98 -196 -14 -308 194
-172 319 40 38 79 60 116 69 45 11 48 11 90 -1z"/>
<path d="M8360 6937 c-19 -7 -52 -22 -74 -33 l-38 -21 53 -33 c30 -18 66 -46
81 -62 25 -29 28 -29 62 -18 43 14 56 35 56 88 0 68 -67 106 -140 79z"/>
<path d="M8435 6700 c-44 -27 -106 -59 -137 -71 -67 -25 -73 -42 -30 -90 40
-45 98 -44 195 4 88 43 117 73 124 124 5 35 2 43 -22 61 -15 12 -33 22 -39 21
-6 0 -47 -23 -91 -49z"/>
<path d="M8563 6546 c-61 -35 -191 -83 -246 -91 -56 -9 -61 -15 -53 -61 15
-75 89 -86 214 -32 147 64 207 124 170 169 -31 37 -42 39 -85 15z"/>
<path d="M8585 6345 c-38 -18 -99 -44 -135 -58 -70 -28 -83 -46 -53 -79 16
-18 26 -20 79 -15 33 3 85 15 116 27 46 17 58 27 72 59 18 39 19 92 1 97 -5 1
-41 -12 -80 -31z"/>
<path d="M2923 6870 c-32 -13 -56 -55 -49 -84 3 -14 17 -37 30 -53 19 -22 31
-27 64 -26 46 2 100 26 109 49 6 17 -25 54 -81 95 -43 32 -42 32 -73 19z"/>
<path d="M2744 6726 c-21 -21 -34 -44 -34 -59 0 -27 77 -137 113 -162 27 -19
70 -19 107 0 46 24 52 45 24 80 -13 17 -24 36 -24 43 0 22 -111 132 -133 132
-10 0 -34 -15 -53 -34z"/>
<path d="M2636 6568 c-27 -38 -20 -98 16 -142 32 -40 96 -75 135 -76 21 0 83
44 83 59 0 5 -17 16 -38 25 -39 18 -122 92 -150 134 -18 28 -27 28 -46 0z"/>
<path d="M2547 6403 c-12 -11 -7 -73 7 -102 31 -59 107 -79 156 -41 14 10 23
21 20 23 -3 2 -25 16 -50 30 -25 14 -61 42 -80 62 -35 36 -42 40 -53 28z"/>
<path d="M3803 3681 c-41 -19 -49 -32 -43 -71 8 -62 199 -116 438 -123 101 -3
118 -1 162 19 95 44 109 142 25 174 -17 6 -137 13 -285 16 -241 5 -257 4 -297
-15z"/>
<path d="M4475 3560 c-14 -41 -15 -59 -6 -102 6 -29 12 -71 14 -93 3 -49 23
-56 63 -22 l29 25 -17 97 c-16 91 -37 145 -57 145 -5 0 -17 -22 -26 -50z"/>
<path d="M3736 3471 c-25 -28 -32 -95 -13 -124 38 -59 147 -83 407 -93 164 -6
178 -5 233 16 42 16 61 29 68 47 13 36 11 76 -6 100 -15 22 -20 22 -143 16
-140 -6 -296 7 -437 38 -49 10 -90 19 -90 19 -1 0 -10 -9 -19 -19z"/>
<path d="M3722 3220 c-15 -25 -15 -100 1 -120 17 -23 60 -37 157 -54 221 -40
408 -39 452 1 24 22 40 79 36 128 -3 39 -4 40 -38 37 -123 -8 -383 -2 -455 12
-107 21 -137 20 -153 -4z"/>
<path d="M7248 3193 c-35 -9 -14 -117 32 -163 50 -50 125 -3 116 71 -5 41 -31
89 -50 90 -6 0 -27 2 -46 4 -19 1 -43 1 -52 -2z"/>
<path d="M7470 3186 c-28 -10 -35 -18 -36 -42 -2 -36 20 -92 48 -121 18 -19
28 -22 57 -17 60 11 74 30 69 97 -3 33 -11 64 -19 73 -21 21 -78 26 -119 10z"/>
<path d="M7683 3190 c-20 -8 -23 -17 -23 -68 0 -72 17 -92 78 -92 65 0 86 27
78 98 -4 31 -12 60 -19 64 -16 10 -87 9 -114 -2z"/>
<path d="M7890 3193 c-23 -9 -30 -24 -30 -74 0 -67 39 -96 105 -78 27 8 40 19
50 42 15 37 9 87 -13 105 -16 12 -84 15 -112 5z"/>
<path d="M8165 3176 c-46 -21 -85 -62 -85 -91 0 -19 5 -25 21 -25 23 0 138 38
152 50 17 15 -34 85 -56 80 -1 -1 -15 -7 -32 -14z"/>
<path d="M6408 3013 c-28 -7 -21 -23 10 -23 16 0 62 -11 103 -25 l74 -26 18
22 c9 12 17 30 17 40 0 17 -8 19 -102 18 -57 -1 -111 -3 -120 -6z"/>
<path d="M4635 2955 c-102 -107 -163 -283 -152 -439 15 -202 87 -345 227 -456
39 -31 40 -31 122 -25 l83 7 -63 66 c-70 74 -129 182 -158 292 -45 173 -2 410
101 550 19 26 32 50 28 54 -3 3 -35 6 -71 6 l-64 0 -53 -55z"/>
<path d="M5143 2993 c-16 -6 -17 -25 -2 -40 8 -8 24 -5 61 12 27 12 52 25 55
29 7 6 -96 6 -114 -1z"/>
<path d="M6702 2993 c-24 -9 -44 -64 -37 -99 8 -47 59 -102 100 -110 80 -15
142 56 112 129 -28 66 -113 105 -175 80z"/>
<path d="M4983 2979 c-36 -10 -80 -58 -90 -97 -3 -14 0 -44 8 -66 26 -73 108
-66 168 16 46 62 40 117 -16 146 -25 14 -26 14 -70 1z"/>
<path d="M6983 2983 c-9 -3 -6 -17 11 -46 32 -55 63 -160 81 -270 30 -184 -16
-399 -120 -562 -19 -30 -35 -57 -35 -60 0 -3 31 -5 68 -5 79 0 78 -1 141 104
106 178 152 390 121 558 -22 116 -98 262 -143 273 -32 8 -110 13 -124 8z"/>
<path d="M5283 2952 c-115 -41 -177 -105 -204 -211 -44 -167 21 -458 125 -562
42 -42 144 -94 230 -116 49 -12 70 -13 109 -4 94 21 203 114 255 216 25 50 52
176 52 244 0 101 -76 240 -176 323 -134 111 -276 151 -391 110z"/>
<path d="M6230 2926 c-82 -28 -105 -40 -158 -84 -94 -75 -134 -139 -158 -251
-20 -95 -17 -138 15 -212 68 -159 176 -248 338 -276 113 -19 220 -8 280 30 55
35 117 131 149 230 35 110 37 267 4 371 -26 82 -85 152 -163 191 -70 34 -210
35 -307 1z"/>
<path d="M4895 2724 c-48 -16 -65 -37 -65 -78 1 -81 110 -127 167 -70 21 21
24 32 19 62 -6 42 -33 82 -62 92 -11 5 -37 2 -59 -6z"/>
<path d="M6790 2709 c-31 -13 -40 -26 -40 -64 0 -33 26 -78 58 -101 28 -19 65
-2 92 41 27 44 25 72 -9 106 -31 30 -58 35 -101 18z"/>
<path d="M4893 2475 c-24 -10 -33 -22 -38 -48 -9 -48 1 -75 38 -98 41 -25 78
-24 111 2 38 30 37 95 -2 132 -31 30 -61 33 -109 12z"/>
<path d="M6785 2473 c-38 -20 -45 -30 -45 -71 0 -43 38 -82 80 -82 76 0 120
105 64 149 -32 25 -58 26 -99 4z"/>
<path d="M5856 2243 c-29 -55 -104 -139 -161 -180 l-30 -22 290 0 c202 0 282
3 265 10 -119 48 -196 97 -264 171 l-72 77 -28 -56z"/>
<path d="M4960 2240 c-27 -27 -27 -83 1 -108 11 -11 37 -22 57 -26 86 -14 140
90 73 141 -27 21 -108 16 -131 -7z"/>
<path d="M6708 2244 c-48 -26 -49 -91 -2 -112 28 -13 74 -15 90 -4 20 14 44
57 44 79 0 46 -76 68 -132 37z"/>
<path d="M5123 2086 c-29 -17 -52 -34 -53 -37 -1 -19 203 -28 214 -10 3 5 -9
18 -27 29 -19 11 -45 26 -58 34 -22 14 -28 13 -76 -16z"/>
<path d="M6560 2070 l-34 -30 89 0 90 0 -45 30 c-25 16 -49 30 -55 30 -5 -1
-26 -14 -45 -30z"/>
</g>
</svg>
